<?xml version="1.0" encoding="UTF-8"?>
<svg xmlns="http://www.w3.org/2000/svg" viewBox="0 0 360 360" role="img" aria-label="rotating mail seal icon">
  <style>
    .ring {
      transform-origin: 180px 180px;
      animation: spin 24s linear infinite;
    }

    .ring-text {
      font-family: 'Helvetica Neue', 'PingFang TC', sans-serif;
      font-size: 9.8px;
      font-weight: 700;
      letter-spacing: 1.1px;
      fill: #111111;
      text-transform: uppercase;
    }

    .icon {
      fill: #111111;
    }

    @keyframes spin {
      from { transform: rotate(0deg); }
      to { transform: rotate(360deg); }
    }
  </style>

  <defs>
    <path id="sealPath" d="M180 180 m-86 0 a86 86 0 1 1 172 0 a86 86 0 1 1 -172 0"/>
  </defs>

  <g class="ring">
    <text class="ring-text">
      <textPath href="#sealPath" startOffset="0%">SEND A PIGEON  •  OR SEND AN EMAIL  •  SEND A PIGEON  •  OR SEND AN EMAIL  •  SEND A PIGEON  •  OR SEND AN EMAIL  •  SEND A PIGEON  •  OR SEND AN EMAIL  •</textPath>
    </text>
  </g>

  <g class="icon" transform="translate(180 188) scale(0.2) translate(-328.510 -211.015)">
  <path d="M541.81,196.6c7.62,30.4,18.07,67.64,22.97,98.01,1.82,11.3-2.34,15.96-13.95,17.19l-134.78-13.87c-14.65,18.66-28.58,37.92-42.84,56.86-13.45,17.86-28.02,40.01-42.34,56.55-9.88,11.41-13.24,14.67-25.93,4.95-19.68-15.07-38.38-33.08-57.7-48.81-73.75-60.06-149.8-117.37-225.54-174.37-1.62-1.22-3.91-1.29-5.84-2.76-2.38-1.82-13.02-10.62-14.27-12.34-2.05-2.83-2.1-8.55-.25-11.48,4.32-6.83,16.49-8.9,24.11-10.97,89.55-24.37,180.54-45.34,270.44-68.5,108.65-27.98,220.06-61.14,329.66-83.77,6.51-1.34,20.88-5.06,26.3-2.28,6.41,3.29,6.37,8.48,2.59,13.92l-124.19,142.19c4.53,12.94,8.23,26.2,11.56,39.49ZM131.89,165.87c113.51-4.06,227.62-4.24,341.07-10.7,4.98-.28,23.83-.88,26.99-1.95,1.15-.39,2.2-.8,3.03-1.73,11.44-13.98,23.58-27.54,35.86-40.79,16.26-17.53,32.75-35.38,49.02-53.22,11.9-13.04,25.1-25.3,35.78-39.28L55.7,164.27l76.2,1.59ZM81.29,213.76c54.56,39.84,109.3,80.62,162.93,122.11,24.28,18.78,48.1,38.03,71.77,57.61l123.38-155.06c.43-1.8-5.25-1.71-6.44-1.86-57.56-7.29-115.99-10.52-173.18-20.96l-225.67-36.75c15.56,11.72,31.41,23.36,47.22,34.91ZM235.34,191.01l-13.48-14.27c-19.76,1-39.57.29-59.34.41-1.84.01-3.54.82-5.36.83-13.52.09-27.29-1.53-40.72.09l118.91,12.94ZM247.22,193.18l15.15.88-17.16-17.55-11.93.74,13.94,15.93ZM273.25,195.87l13.43.49-18.64-20.83-12.43.54,17.64,19.81ZM297.53,198.26l13.46.39-23.35-25.1-10.57,1.84c7.63,6.37,13.42,15.57,20.46,22.88ZM309.96,172.39l-12.42.55c6.96,9.91,17.15,17.04,23.66,27.23l14.08.77-25.32-28.56ZM332.44,172.68l-12.08-.05,25.3,29.28,13.93,1.34-27.14-30.57ZM369.23,204.22l12.43,1.44-28.51-33.61-11.33-.11,27.41,32.27ZM392.77,206.62l14.07.83-32.98-36c-1.18-1.9-12.62-.72-12.81-.07l31.72,35.24ZM417.09,208.87l13.18,1.39-34.29-39.24c-1.31-2.44-12.39-1.76-12.6-.83l33.71,38.67ZM440.78,210.73l13.79,1.82c-8.15-11.49-18.92-20.72-28.51-30.95-6.85-7.32-9.28-16.41-21.23-12.1l35.94,41.23ZM465.87,212.83l51.85,42.05c-20.33-23.12-42.12-44.92-63.22-67.33-8.1-8.61-15.27-24.6-29.07-18.23l40.45,43.51ZM526.93,240.91c-22.24-25.1-47.08-47.78-69.21-73.02l-11.32-.14,84.98,90.88-4.44-17.72ZM519.87,212.56c-2.6-6.89-8.93-10.42-13.71-15.5-9.08-9.65-18.22-19.2-27.24-28.9-3.57-2.93-8.26-1.52-12.42-1.49l55.05,58.44c.76-2.79-.63-9.8-1.67-12.55ZM512.05,184.74c-1.9-6.88-5.24-13.34-7.6-20.05l-16,2.18,23.75,25.62c2.66.97.11-6.84-.14-7.74ZM492.11,264.04c9.27,7.24,22.89,21.18,32.3,26.52,1.03.58,10.27,1.28,10.47.58l-69.32-57.22-5.46,6.57c10.41,8.17,21.58,15.41,32.01,23.55ZM493.04,279.29c2.3,1.83,8.05,8.37,9.57,9.18.39.21,8.75.33,8.82-.11l-53.35-43.3-4.71,3.84c12.36,11.18,26.62,20.05,39.66,30.39ZM477.93,283.55c3.93,2.13,8.5,2.16,12.8,2.77l-40.26-32.26-3.77,3.27,31.23,26.23ZM466.8,282.65c-7.41-7.24-15.3-14.23-24.1-19.27l-3.64,2.84c8.28,6.78,15.86,18.36,27.74,16.43ZM445.22,281.12l-9.9-9.33c-1.37.68-7.05,7.05-4.48,8.28l14.38,1.05Z"/>
  
</g>
</svg>
