<?xml version="1.0" encoding="UTF-8"?>
<svg xmlns="http://www.w3.org/2000/svg" viewBox="0 0 360 360" role="img" aria-label="rotating mail seal icon">
  <style>
    .ring {
      transform-origin: 180px 180px;
      animation: spin 24s linear infinite;
    }

    .ring-text {
      font-family: 'Helvetica Neue', 'PingFang TC', sans-serif;
      font-size: 9.8px;
      font-weight: 700;
      letter-spacing: 1.1px;
      fill: #111111;
      text-transform: uppercase;
    }

    .icon {
      fill: #111111;
    }

    @keyframes spin {
      from { transform: rotate(0deg); }
      to { transform: rotate(360deg); }
    }
  </style>

  <defs>
    <path id="sealPath" d="M180 180 m-86 0 a86 86 0 1 1 172 0 a86 86 0 1 1 -172 0"/>
  </defs>

  <g class="ring">
    <text class="ring-text">
      <textPath href="#sealPath" startOffset="0%">SEND A PIGEON  •  OR SEND AN EMAIL  •  SEND A PIGEON  •  OR SEND AN EMAIL  •  SEND A PIGEON  •  OR SEND AN EMAIL  •  SEND A PIGEON  •  OR SEND AN EMAIL  •</textPath>
    </text>
  </g>

  <g class="icon" transform="translate(180 186) scale(0.18) translate(-350.155 -243.240)">
  <path d="M236.41,292.49l-42.23,52.63c-3.54,3.14-6.45,2.5-10.55.83-11.82-4.8-30.11-18.89-41.27-26.55-36.49-25.04-74.02-52.48-109.04-79.54-6.78-5.24-28.32-20.39-31.92-26.28s.54-9.92,3.75-14.67c22.03-32.6,47.63-68.2,71.63-99.37,8.16-10.6,13.91-23.99,28.53-13.22l76.72,50.95c9.31-8.46,18.22-15.07,31.19-16.31,16.09-34.2,55.21-36,82.77-13.72,12.92,10.44,22.43,27.73,32.86,40.64,20.53-14.39,21-44.83,33.23-64.75,17.65-28.77,58.2-29.55,88.04-37.17,24.83-6.35,44.53-13.03,66.27-26.97,9.21-5.91,35.46-31.74,41.69-11.18,4.12,13.6-9.24,30.52-15.77,41.63,3.77,1.23,7.08,5.39,7.85,9.18,3.72,18.28-22.77,37.02-35.09,46.94,38.39-1.35,76.81-9.07,113.11-21.59,13.75-4.74,27.35-11.71,40.81-16.28,10.8-3.67,26.4-7.5,30.64,7.25,4.69,16.34-15.16,38.08-27.97,46.67,25.75,21.09-11.57,46.74-30.83,54.56-1.34,2,1.69,6.1,1.42,9.27-1.8,21.37-26.31,29.7-43.03,36.49-.76,3.82,1.42,6.31.44,10.51-4.57,19.57-33.65,26.67-50.88,28.19-3.59,22.66-28.19,27.44-47.56,26.65-8.86,21.4-37.55,24.24-57.42,20.07-.78,1.38-.62,2.23-.28,3.66,8.07,33.95,57.19,59.7,86.4,72.34,15.04,6.51,64.03,18.83,51.56,43.91-4.51,9.07-14.86,9.75-23.75,11.05,4.29,18.28-11.14,27.66-27.47,23.65-.8,28.04-30.94,23.03-47.64,11.81-7.95,23.45-35.91,9.72-47.14-3.75-28.21,10.52-44.88-23.33-50.4-45.64-2.14-8.63-2.73-17.51-4.05-26.28-.78-1.02-1.94-1.28-3.08-1.64-2.41-.77-17.38-3.46-19.81-3.56-2.31-.09-11.49,7.73-11.61,9.89-.16,3.19,7.83,3.27,10.63,4.32,11.31,4.24,9.76,17.5,1.33,24.24-1.22.98-13.46,9.12-14.29,9.46-16.06,6.61-33.15-9.13-34.69-24.86-12,1.24-20.32,4.61-31.64-2.23-13.35-8.07-12.42-28.8-4.15-40.03,4.82-6.54,11.72-8.62,17.04-14.33-23.05-17.6-42.19-40.56-54.32-66.9ZM496.77,71.44c15.85-10.71,32.51-23.74,41.48-41.09,1.88-3.63,4.66-7.87,2.85-12.06-17.25,12.09-34.99,23.72-54.65,31.56-23.85,9.51-49,12.22-73.63,18.13-23.71,5.69-33.51,9.18-43.68,33.22-6.44,15.22-9.37,29.7-18.96,43.95-1.58,2.35-10.53,11.94-10.26,13.14,7.17,7.64,21.58,16.49,32.22,16.41,5.05-.04,16.84-10.62,20.56-14.38,17.74-17.94,24.87-36.71,50.89-46.02,21.22-7.59,38.47-2.07,58.74-14.84,8.87-5.59,32.27-24.31,32.37-35.03.09-9.65-17.53,4.94-20.16,6.47-5.61,3.26-12.21,7.13-18.17,9.53-2.59,1.04-15.46,5.83-16.98,3-1-1.88,15.35-10.63,17.38-12ZM297.6,127.63c-17.2-19.82-46.81-34.36-67.42-10.5-11.3,13.09-2.67,11.38,1.31,22.51,4.49,12.55-1.68,16.99-12.04,22.24.41,1.55,1.67,2.35,2.74,3.37,15.27,14.52,37.98,27.43,54.63,42.07,14.65,12.88,9.11,13.91-.63,29.01-9.13,14.17-20.26,26.96-29.42,41.11-1.01,4.42,8.54,21.4,11.31,25.83,17.78,28.46,44.59,50.37,74.38,65.55l-3.04-19.71c-.27-2.33,2.07-13.46,5.49-11.25,1.73,8.4,3.03,16.35,7.5,23.85,2.33,3.91,7.87,6.06,4.77,11.5-2.3,4.03-12.79,11.66-16.64,16.15-6.26,7.31-10.24,13.42-9.75,23.44.4,8.01,6.72,20.99,16.58,18.71,1.06-1.78-8.68-12.69-5.87-16.37,5.82,3.68,10.16,9.94,17.87,10.33,5.85.29,1.61-6.12,4.86-8.67-9.59-.24-23.47-6.83-18.38-18.33,3.92-8.84,27.8-20.9,36.24-28.74,3.57-3.31,11.82-15.24,16.02-14.19,8.13,4.2-3.28,16.6-7.4,20.75-1.16,1.17-7.33,5.16-6.89,6.07,16.29,3.53,32.27-.4,48.41-1.99,1.7,4.25-12.14,10.37-15.23,11.56-2.31.89-9.39,1.8-10.48,2.69-4.89,3.96,1.09,28.67,3.23,34.51,2.88,7.86,14.71,31.74,25.27,28.69,1.58-.66,1.85-3.35,1.85-4.83-.03-6.67-10.5-25.67-12.49-34.78-.68-3.09-2.01-5.71-.23-8.9,10.4,16.01,16.33,35.31,29.41,49.81,6.92,7.66,26.31,24.28,26.33,3.87-10.7-18.11-27.22-33.82-33.29-54.22,1.82.32,2.76,1.19,4.01,2.39,8.1,7.75,16.19,21.59,24.64,30.54,9.59,10.17,27.84,27.56,42.23,27.6,4.92.01,9.16-2.25,8.12-7.78s-23.77-22.09-29.59-27.39c-8.04-7.33-20.51-19.17-26-28.33-.56-.94-3.52-5.82-2.04-6.46,10.54,7.65,19.47,17.36,29.73,25.36,11.01,8.58,37.75,28.22,51.68,24.44,11.53-3.12.59-13.41-4.72-17.11-14.32-9.95-35.76-18.94-47.19-32.3-1.12-1.31-2.71-2.37-1.6-4.32,11.89,4.98,22.39,13.33,34.32,18.46,9.19,3.95,35.6,13.78,44.69,9.9,4.59-1.96,3.68-5.81,1.09-9.06-6.7-8.4-31.03-14.92-41.34-19.43-38.6-16.86-76.61-37.78-93.21-78.49-1-2.46-2.83-11.45-3.61-12.38-2.63-3.17-10.31-4.72-13.92-6.67-5.17-2.79-21.46-14.36-23.54-19.31-.52-1.23-.57-1.93,0-3.18.43-1.12,1.19-1.68,2.41-1.66,3.95.08,20.75,11.98,26.55,14.51,15.16,6.62,39.04,10.97,54.93,5.11,3.51-1.29,13.61-5.91,9.03-10.67-.71-.74-16.33-4.94-19.54-6.27-5.4-2.23-24.4-11.84-27.2-16-.76-1.13-1.39-2.09.37-2.55,23.29,6.36,52.21,19.59,76.69,16.15,6.61-.93,21.41-5.72,18.19-14.45-9.82-3.87-21.43-4.45-31.83-7.53-5.61-1.66-12.54-4.04-17.9-6.32-1.69-.72-15.56-6.77-9.38-8.1,27.84,5.07,64.09,15.63,91.88,6.93,7.96-2.49,26.03-10.62,17.31-20.67-21.27,1.18-44.94.06-65.46-6.27-1.88-.58-12.04-3.62-11.29-5.62,15.42-.68,30.87,2.09,46.45,2.1,19.82.01,49.41-2.99,65.68-15.08,3.73-2.77,12.97-10.62,8.25-15.6-3.79-3.99-19.14,1.78-24.63,2.65-19.47,3.08-51.68,3.37-70.62-1.8-1.11-.3-10.8-2.94-7.34-4.68,29.12-.05,58.82.45,87.2-6.97,14.35-3.75,46.41-15.45,53.58-28.98,2.21-4.18,2.21-9.51-2.6-11.78-5.1-2.4-18.66,5.81-24.39,7.83-23.78,8.37-72.45,16.2-96.85,10.62-2.52-.58-5.26-1.01-4.01-4.34,26.88-2.27,54.03-4.49,79.96-12.27,19.92-5.97,43.06-16.45,57.84-31.48,3.82-3.88,16.43-18.54,8.04-22.51-4.27-2.02-26.36,9.34-32.11,11.5-38.16,14.35-77.94,23.44-118.56,27.43-33.45,3.29-81.28-2.38-105.19,24.24-22.57,25.11-33.78,49.37-72.74,51.14-4.32.2-18.93.23-20.63-3.74-3.33-7.8,15.37-5.21,18.99-8.68-26.05-9.63-37.24-34.68-53.85-53.82ZM211.51,143.65c3.41-.09,7.4,1.15,10.61.84.83-.08,1.86.49,1.74-1.2s-5.21-9.97-6.7-10.95c-6.65-4.35-27.42,7.33-28,16.18,7.45-2.36,14.41-4.67,22.35-4.87ZM127.39,229.44l138.22-15.21c.48-1.37-19.61-16.17-22.41-18.27-12.37-9.28-37.98-30.33-50.3-36.37-4.62-2.27-10.31-.4-13.52-6.01-2.92-5.09-1.12-4.15-6.82-8.49-22.6-17.19-47.95-31.34-71.71-46.83l26.54,131.18ZM105.75,191.73l-17.2-87.21L20.3,200.25l85.45-8.52ZM221.65,152.58c-1.28-1.93-17.77-2.75-16.13.65,1.49,3.08,13.81,2.38,16.13-.65ZM193.15,324.89c1.55-.43,2.35-1.66,3.38-2.74,11.25-11.85,24.13-31.07,34.31-44.63,12.19-16.23,24.92-32.56,35.34-49.84l-93.11,8.53,20.08,88.68ZM182.73,331.84l-21.75-93.44c-2.77-1.62-30.57,5.28-37.32,3.59-13.84-3.46-10.84-29.02-16.78-38.59-22.89,1.73-45.97,2.94-68.79,5.39-6.81.73-15.3.83-21.19,4.02l165.82,119.02ZM288.57,392.55c2.46-1.23,9.77,19.17,17.31,14.03l-.26-5.36,2.24-.27c0-2.13-15.43-8.4-11.42-18.84,2.66-6.93,12.1-7.24,13.21-10.22l-6.99-5.83c-12.55,5.27-23.94,13.13-23.74,28.35.08,6.24,3.57,13.26,10.3,14.27,1.5-5.32-3.5-10.68-.66-16.13ZM315.41,391.33c1.64-2.8,11.68-10.46,4.91-12-2.08-.47-13.54,4.96-12.66,7.22l7.75,4.78Z"/>
  <circle cx="256.13" cy="136.15" r="8.99"/>
</g>
</svg>
