<?xml version="1.0" encoding="UTF-8"?>
<svg xmlns="http://www.w3.org/2000/svg" viewBox="0 0 656 420" role="img" aria-label="paper plane icon">
  <path fill="#111111" d="M541.81,196.6c7.62,30.4,18.07,67.64,22.97,98.01,1.82,11.3-2.34,15.96-13.95,17.19l-134.78-13.87c-14.65,18.66-28.58,37.92-42.84,56.86-13.45,17.86-28.02,40.01-42.34,56.55-9.88,11.41-13.24,14.67-25.93,4.95-19.68-15.07-38.38-33.08-57.7-48.81-73.75-60.06-149.8-117.37-225.54-174.37-1.62-1.22-3.91-1.29-5.84-2.76-2.38-1.82-13.02-10.62-14.27-12.34-2.05-2.83-2.1-8.55-.25-11.48,4.32-6.83,16.49-8.9,24.11-10.97,89.55-24.37,180.54-45.34,270.44-68.5,108.65-27.98,220.06-61.14,329.66-83.77,6.51-1.34,20.88-5.06,26.3-2.28,6.41,3.29,6.37,8.48,2.59,13.92l-124.19,142.19c4.53,12.94,8.23,26.2,11.56,39.49ZM131.89,165.87c113.51-4.06,227.62-4.24,341.07-10.7,4.98-.28,23.83-.88,26.99-1.95,1.15-.39,2.2-.8,3.03-1.73,11.44-13.98,23.58-27.54,35.86-40.79,16.26-17.53,32.75-35.38,49.02-53.22,11.9-13.04,25.1-25.3,35.78-39.28L55.7,164.27l76.2,1.59ZM81.29,213.76c54.56,39.84,109.3,80.62,162.93,122.11,24.28,18.78,48.1,38.03,71.77,57.61l123.38-155.06c.43-1.8-5.25-1.71-6.44-1.86-57.56-7.29-115.99-10.52-173.18-20.96l-225.67-36.75c15.56,11.72,31.41,23.36,47.22,34.91Z"/>
</svg>
